
PLOT

Agents of an oil tycoon vanish while exploring a swamp marked for drilling. The local sheriff
investigates and faces a Seminole legend come to life: Man-Thing, a shambling swamp-monster
whose touch burns those who feel fear.
 
http://www.imdb.com/title/tt0290747/

Encoded By .......: BigPerm1828
Runtime ..........: 1h 37mn
File Size ........: 1.23 GB
Resolution .......: 640 x 272
IMDb URL .........: http://www.imdb.com/title/tt0290747/
Genre ............: Action | Horror | Sci-Fi
Language .........: English
Subtitles ........: None
Video
ID : 0
Format : MPEG-4 Visual
Format profile : Simple@L5
Format settings, BVOP : No
Format settings, QPel : No
Format settings, GMC : No warppoints
Format settings, Matrix : Default (H.263)
Codec ID : XVID
Codec ID/Hint : XviD
Duration : 1h 37mn
Bit rate : 1 418 Kbps
Width : 640 pixels
Height : 272 pixels
Display aspect ratio : 16:9
Frame rate : 29.970 fps
Color space : YUV
Chroma subsampling : 4:2:0
Bit depth : 8 bits
Scan type : Progressive
Compression mode : Lossy
Bits/(Pixel*Frame) : 0.272
Stream size : 987 MiB (78%)
Writing library : XviD 64

Audio
ID : 1
Format : AC-3
Format/Info : Audio Coding 3
Mode extension : CM (complete main)
Codec ID : 2000
Duration : 1h 37mn
Bit rate mode : Constant
Bit rate : 384 Kbps
Channel(s) : 6 channels
Channel positions : Front: L C R, Side: L R, LFE
Sampling rate : 48.0 KHz
Bit depth : 16 bits
Compression mode : Lossy
Stream size : 267 MiB (21%)
Alignment : Aligned on interleaves
Interleave, duration : 33 ms (1.00 video frame)
Interleave, preload duration : 512 ms
